<svg width="356" height="27" viewBox="0 0 356 27" fill="none" xmlns="http://www.w3.org/2000/svg">
<path d="M25.0807 1H2.91931C2.41027 1 1.92209 1.20221 1.56215 1.56215C1.20221 1.92209 1 2.41027 1 2.91931V25.0807C1 25.5897 1.20221 26.0779 1.56215 26.4379C1.92209 26.7978 2.41027 27 2.91931 27H25.0807C25.5897 27 26.0779 26.7978 26.4379 26.4379C26.7978 26.0779 27 25.5897 27 25.0807V2.91931C27 2.41027 26.7978 1.92209 26.4379 1.56215C26.0779 1.20221 25.5897 1 25.0807 1ZM8.74944 23.1488H4.84042V10.7319H8.74944V23.1488ZM6.79222 9.01125C6.34881 9.00875 5.91608 8.87496 5.54863 8.62676C5.18118 8.37856 4.89549 8.02708 4.72762 7.61666C4.55974 7.20625 4.5172 6.75531 4.60537 6.32074C4.69353 5.88618 4.90845 5.48747 5.223 5.17493C5.53755 4.86239 5.93763 4.65004 6.37276 4.56467C6.80788 4.47929 7.25854 4.52473 7.66786 4.69523C8.07719 4.86574 8.42683 5.15368 8.67267 5.52271C8.91851 5.89175 9.04952 6.32533 9.04917 6.76875C9.05335 7.06562 8.99772 7.36029 8.8856 7.63521C8.77347 7.91012 8.60715 8.15964 8.39654 8.36891C8.18592 8.57817 7.93534 8.74289 7.65971 8.85325C7.38408 8.9636 7.08906 9.01734 6.79222 9.01125ZM23.1578 23.1596H19.2506V16.3761C19.2506 14.3756 18.4001 13.7581 17.3024 13.7581C16.1432 13.7581 15.0057 14.6319 15.0057 16.4267V23.1596H11.0967V10.741H14.8558V12.4617H14.9064C15.2838 11.6979 16.6054 10.3925 18.6222 10.3925C20.8033 10.3925 23.1596 11.6871 23.1596 15.4788L23.1578 23.1596Z" fill="white"/>
<g clip-path="url(#clip0_1_274)">
<path d="M128.482 7.70082C128.335 7.14769 128.045 6.64286 127.642 6.23686C127.238 5.83087 126.735 5.53795 126.183 5.38741C124.15 4.84082 116.025 4.84082 116.025 4.84082C116.025 4.84082 107.9 4.84082 105.868 5.38741C105.315 5.53795 104.813 5.83087 104.409 6.23686C104.006 6.64286 103.716 7.14769 103.569 7.70082C103.025 9.74241 103.025 13.9999 103.025 13.9999C103.025 13.9999 103.025 18.2574 103.569 20.299C103.716 20.8521 104.006 21.357 104.409 21.763C104.813 22.169 105.315 22.4619 105.868 22.6124C107.9 23.159 116.025 23.159 116.025 23.159C116.025 23.159 124.15 23.159 126.183 22.6124C126.735 22.4619 127.238 22.169 127.642 21.763C128.045 21.357 128.335 20.8521 128.482 20.299C129.025 18.2574 129.025 13.9999 129.025 13.9999C129.025 13.9999 129.025 9.74241 128.482 7.70082Z" fill="#FAFAFA"/>
<path d="M113.367 17.8659V10.1338L120.163 13.9999L113.367 17.8659Z" fill="#214E41"/>
</g>
<path d="M60.1765 24.5629C69.9878 24.5629 75.3542 16.4343 75.3542 9.38512C75.3542 9.15424 75.3542 8.9244 75.3386 8.6956C76.3826 7.94047 77.2838 7.00548 78 5.9344C77.0265 6.366 75.9937 6.64892 74.9362 6.77368C76.0498 6.10709 76.8833 5.05853 77.2814 3.8232C76.2343 4.44461 75.0887 4.88251 73.8941 5.118C73.0898 4.26279 72.0261 3.69649 70.8675 3.50674C69.709 3.31698 68.5202 3.51435 67.4851 4.06831C66.4501 4.62226 65.6264 5.5019 65.1416 6.57113C64.6569 7.64035 64.538 8.83954 64.8034 9.98312C62.6826 9.87673 60.6079 9.32557 58.7139 8.36541C56.8199 7.40524 55.149 6.05753 53.8096 4.40976C53.1275 5.58409 52.9185 6.97426 53.2254 8.29722C53.5322 9.62018 54.3317 10.7765 55.4611 11.5306C54.6122 11.5058 53.7817 11.2767 53.04 10.863V10.9306C53.0403 12.1621 53.4667 13.3557 54.2467 14.3088C55.0267 15.2619 56.1124 15.9159 57.3196 16.1597C56.5343 16.3739 55.7103 16.4052 54.911 16.2512C55.252 17.3111 55.9156 18.2379 56.8092 18.9021C57.7027 19.5663 58.7815 19.9347 59.8946 19.9557C58.7886 20.8251 57.5221 21.4678 56.1674 21.8472C54.8128 22.2266 53.3966 22.3352 52 22.1668C54.4395 23.7322 57.2779 24.5626 60.1765 24.5588" fill="#FAFAFA"/>
<defs>
<clipPath id="clip0_1_274">
<rect width="26" height="26" fill="white" transform="translate(103 1)"/>
</clipPath>
</defs>
</svg>
